<svg xmlns="http://www.w3.org/2000/svg" viewBox="0 0 150.96 141.779">
  <defs>
    <style>
      .cls-1, .cls-2, .cls-3, .cls-4 {
        fill: #fff;
      }

      .cls-1 {
        font-size: 38.206px;
      }

      .cls-1, .cls-2 {
        font-family: BebasNeueBold, Bebas Neue;
      }

      .cls-2 {
        font-size: 21.299px;
      }

      .cls-4 {
        font-size: 7.93px;
        font-family: Helvetica;
        letter-spacing: 0.03em;
      }
    </style>
  </defs>
  <g id="Group_53" data-name="Group 53" transform="translate(-281.921 -285.753)">
    <text id="Food_Hut" data-name="Food Hut" class="cls-1" transform="translate(357.401 393.716)"><tspan x="-55.017" y="0">Food Hut</tspan></text>
    <text id="THE" class="cls-2" transform="translate(354.267 351.211)"><tspan x="-12.257" y="0">THE</tspan></text>
    <rect id="Rectangle_3" data-name="Rectangle 3" class="cls-3" width="145.929" height="3.316" transform="translate(284.436 358.163)"/>
    <rect id="Rectangle_4" data-name="Rectangle 4" class="cls-3" width="145.929" height="3.316" transform="translate(284.436 398.699)"/>
    <g id="Group_48" data-name="Group 48">
      <path id="Path_10897" data-name="Path 10897" class="cls-3" d="M344.979,323.734s13.746,6.129,25.974,2.116c0,0-.429-6.782,2.292-9.652s8.918-8.164,4.99-14.968-10.129-3.327-11.945-2.116c0,0,0-11.127-12.4-11.127s-11.188,12.185-11.188,12.185-8.012-5.293-12.85,1.664.573,15.012,9.342,16.069a19.021,19.021,0,0,1,.968,9.088,52.4,52.4,0,0,0,14.483,3.779s-10.719.258-16.766-3.129c0,0,2.5-5.768.1-8.528,0,0-15.086-1.5-11.716-14.06,3.185-11.869,15.076-7.152,15.076-7.152s-.469-11.2,11.034-12.091c12.851-1,15.12,11.033,15.12,11.033s7.484-4.989,12.926,3.175.076,11.753-3.25,14.515c-4.082,3.387-5.593,8.919-4.233,14.815A45.541,45.541,0,0,1,344.979,323.734Z"/>
      <path id="Path_10898" data-name="Path 10898" class="cls-3" d="M343.479,312.276s14.536,9.658,27.909-1.154C371.388,311.122,359.6,326.264,343.479,312.276Z"/>
      <path id="Path_10899" data-name="Path 10899" class="cls-3" d="M338.052,314.645s7.287-1.186,8.33-8.386C346.382,306.259,348.512,315.242,338.052,314.645Z"/>
      <path id="Path_10900" data-name="Path 10900" class="cls-3" d="M364.148,300.442s-3.188-9.442-13-9.223C351.152,291.219,359.763,287.234,364.148,300.442Z"/>
    </g>
    <g id="Group_51" data-name="Group 51">
      <g id="Group_49" data-name="Group 49">
        <path id="Path_10901" data-name="Path 10901" class="cls-3" d="M385.836,337.46l-26.251,24.019h5.1L388.155,340l7.766,8.517a2.937,2.937,0,0,0,3.833.363l32.159-24.037a2.315,2.315,0,0,0,.335-3.474l-23.794-26.093a2.322,2.322,0,0,0-3.493.009L379.7,323.3l-1.634,1.806a2.932,2.932,0,0,0,.012,3.847Zm37.61-17.48a.959.959,0,0,1,.268.2l1.168,1.278a.888.888,0,0,1-.129,1.335l-23.925,17.746a1.134,1.134,0,0,1-1.476-.138l-.581-.641a.913.913,0,0,1,.114-1.351l23.374-18.348A1.08,1.08,0,0,1,423.446,319.98Zm-6.106-5.945a1.03,1.03,0,0,1,.78.087.455.455,0,0,1,.045.025,1.139,1.139,0,0,1,.2.168l1.169,1.281a.95.95,0,0,1-.1,1.377l-22.753,19.021a1.044,1.044,0,0,1-1.436-.1l-.582-.635a.983.983,0,0,1,.074-1.4l4.5-3.971-.241.207,17.942-15.859A.963.963,0,0,1,417.34,314.035Zm-5.566-5.71c.012-.009.023-.019.033-.025s.019-.009.03-.018a.945.945,0,0,1,1.043.043.918.918,0,0,1,.148.133l1.17,1.281a1.019,1.019,0,0,1-.054,1.42l-21.584,20.3a.979.979,0,0,1-1.4-.05l-.584-.639a.877.877,0,0,1-.139-.2c0-.008-.008-.018-.011-.028a1.07,1.07,0,0,1-.068-.722c-.008.011-.014.028-.024.04a1.011,1.011,0,0,1,.281-.525l21.036-20.908A.953.953,0,0,1,411.774,308.325Zm-25.548,17a1.09,1.09,0,0,1,.248-.523l7.853-8.764-.037.042,12.061-13.469a.88.88,0,0,1,1.337-.007l1.17,1.28a1.1,1.1,0,0,1-.017,1.463L388.423,326.93a.918.918,0,0,1-1.36-.012l-.58-.64a1.02,1.02,0,0,1-.145-.206.276.276,0,0,1-.013-.033,1.153,1.153,0,0,1-.077-.757A.113.113,0,0,0,386.226,325.322Z"/>
        <path id="Path_10902" data-name="Path 10902" class="cls-3" d="M310.8,401.647,297.851,413.13a2.6,2.6,0,0,0-.17,3.671l2.357,2.579h0l.63.692a2.6,2.6,0,0,0,3.668.169l20.975-18.594Z"/>
      </g>
      <g id="Group_50" data-name="Group 50">
        <path id="Path_10903" data-name="Path 10903" class="cls-3" d="M317.142,331.882l-.407.417-2.064,2.117s-2.047,1.777-4.793-1.211-27.957-30.1-27.957-30.1l26.56,36.366a8.989,8.989,0,0,0,6.305,2.661h.006c.207,0,.422-.011.637-.026.041,0,.082-.005.123-.01q.274-.025.552-.069c.061-.01.117-.017.178-.028.182-.028.365-.068.551-.113l.178-.04c.228-.056.459-.124.694-.2l.046-.015c.252-.084.508-.181.768-.288.07-.029.142-.065.209-.1.189-.086.374-.168.568-.265.1-.048.2-.1.294-.156.169-.091.338-.181.511-.285.1-.063.21-.128.32-.2.171-.106.344-.221.52-.34l.318-.219c.187-.139.381-.284.576-.433.057-.046.111-.082.168-.128l23.31,22.254h4.893l-25.871-24.7c5.947-8.081-.231-13.328-.231-13.328L286.962,297.94s27.849,24.4,30.91,27.065,1.334,4.757,1.334,4.757Z"/>
        <path id="Path_10904" data-name="Path 10904" class="cls-3" d="M396.5,401.647h-13.59l20.018,19.387a2.559,2.559,0,0,0,3.609-.045l2.393-2.458h0l.643-.658a2.561,2.561,0,0,0-.046-3.61Z"/>
      </g>
    </g>
    <text id="EST_1957" data-name="EST 1957" class="cls-4" transform="translate(357.293 413.202)"><tspan x="-18.395" y="0">EST 1957</tspan></text>
    <g id="Group_52" data-name="Group 52">
      <path id="Path_10905" data-name="Path 10905" class="cls-3" d="M330.157,419.04l1.055,3.244h3.41l-2.76,2,1.055,3.244-2.76-2-2.76,2,1.055-3.244-2.76-2h3.41Z"/>
      <path id="Path_10906" data-name="Path 10906" class="cls-3" d="M343.78,419.04l1.053,3.244h3.41l-2.758,2,1.053,3.244-2.758-2-2.76,2,1.053-3.244-2.759-2h3.411Z"/>
      <path id="Path_10907" data-name="Path 10907" class="cls-3" d="M357.4,419.04l1.055,3.244h3.41l-2.76,2,1.055,3.244-2.76-2-2.76,2,1.055-3.244-2.76-2h3.41Z"/>
      <path id="Path_10908" data-name="Path 10908" class="cls-3" d="M371.023,419.04l1.054,3.244h3.412l-2.76,2,1.054,3.244-2.76-2-2.759,2,1.055-3.244-2.762-2h3.411Z"/>
      <path id="Path_10909" data-name="Path 10909" class="cls-3" d="M384.645,419.04l1.055,3.244h3.41l-2.76,2,1.054,3.244-2.759-2-2.76,2,1.055-3.244-2.761-2h3.411Z"/>
    </g>
  </g>
</svg>
