<?xml version="1.0" encoding="utf-8"?>
<!-- Generator: Adobe Illustrator 26.0.1, SVG Export Plug-In . SVG Version: 6.00 Build 0)  -->
<svg version="1.1" id="Layer_1" xmlns="http://www.w3.org/2000/svg" xmlns:xlink="http://www.w3.org/1999/xlink" x="0px" y="0px"
	 viewBox="0 0 64.9 14.1" style="enable-background:new 0 0 64.9 14.1;" xml:space="preserve">
<style type="text/css">
	.st0{fill:#42E695;}
	.st1{fill:#ffffff;}
</style>
<path class="st0" d="M6.8,0L0.6,14.1l0,0c2,0,3.8-1.2,4.6-3L10.1,0H6.8z"/>
<path class="st1" d="M10.8,10.9c1.3,0,2.5,0.5,3.4,1.4l-3.4-7.7l-3.4,7.7C8.3,11.5,9.5,10.9,10.8,10.9z"/>
<path class="st0" d="M21.5,9L21,10.3c-0.1,0.4-0.6,0.5-1,0.4s-0.6-0.6-0.5-1l2.1-5.6c0.2-0.4,0.5-0.7,1-0.7h0.1c0.5,0,0.9,0.3,1,0.7
	l2.1,5.6c0.1,0.4-0.1,0.8-0.5,1c-0.4,0.1-0.8,0-1-0.4L23.9,9H21.5z M23.4,7.6l-0.7-2.5L22,7.6H23.4z"/>
<path class="st0" d="M34,7.9l1.2,1.7c0.2,0.3,0.1,0.8-0.3,1c-0.3,0.2-0.8,0.1-1-0.2l-1.4-2.3h-0.7V10c0,0.4-0.3,0.7-0.8,0.7
	c-0.4,0-0.8-0.3-0.8-0.7V4.2c0-0.4,0.3-0.8,0.7-0.8h2.2c1.6,0,2.4,1.2,2.4,2.3C35.6,6.7,35,7.6,34,7.9z M31.8,4.8v2h1.4
	c0.6,0,0.9-0.5,0.9-1s-0.3-1-0.9-1H31.8z"/>
<path class="st0" d="M44.7,3.4c0.3,0,0.6,0.3,0.6,0.7c0,0.3-0.3,0.7-0.6,0.7h-2.4v1.7h2.1c0.3,0,0.6,0.3,0.6,0.7
	c0,0.3-0.3,0.7-0.6,0.7h-2.1v1.6h2.5c0.3,0,0.6,0.3,0.6,0.7c0,0.3-0.3,0.7-0.6,0.7h-3.4c-0.4,0-0.6-0.3-0.6-0.7V4.1
	c0-0.4,0.2-0.7,0.6-0.7L44.7,3.4z"/>
<path class="st1" d="M53.3,3.3C55.4,3.3,57,5,57,7.1c0,2-1.6,3.7-3.7,3.7c-2.1,0-3.7-1.7-3.7-3.7C49.6,5,51.3,3.3,53.3,3.3z
	 M53.3,9.3c1.2,0,2.1-1,2.1-2.2s-0.9-2.2-2.1-2.2c-1.2,0-2.1,1-2.1,2.2S52.1,9.3,53.3,9.3z"/>
<path class="st1" d="M64.3,10c0,0.4-0.3,0.7-0.8,0.7c-0.4,0-0.8-0.3-0.8-0.7V4.1c0-0.4,0.4-0.7,0.8-0.7c0.4,0,0.8,0.3,0.8,0.7V10z"
	/>
</svg>
